<?xml version="1.0" encoding="UTF-8" standalone="no"?>
<!-- Created with Inkscape (http://www.inkscape.org/) -->

<svg
   width="503.62302mm"
   height="137.50014mm"
   viewBox="0 0 503.62301 137.50014"
   version="1.1"
   id="svg5"
   inkscape:version="1.1.2 (b8e25be833, 2022-02-05)"
   sodipodi:docname="PAT-Logo+Schriftzug.svg"
   xmlns:inkscape="http://www.inkscape.org/namespaces/inkscape"
   xmlns:sodipodi="http://sodipodi.sourceforge.net/DTD/sodipodi-0.dtd"
   xmlns="http://www.w3.org/2000/svg"
   xmlns:svg="http://www.w3.org/2000/svg">
  <sodipodi:namedview
     id="namedview7"
     pagecolor="#ffffff"
     bordercolor="#666666"
     borderopacity="1.0"
     inkscape:pageshadow="2"
     inkscape:pageopacity="0.0"
     inkscape:pagecheckerboard="0"
     inkscape:document-units="mm"
     showgrid="false"
     inkscape:zoom="0.52347032"
     inkscape:cx="914.09194"
     inkscape:cy="-1.910328"
     inkscape:window-width="1920"
     inkscape:window-height="1017"
     inkscape:window-x="-1928"
     inkscape:window-y="-8"
     inkscape:window-maximized="1"
     inkscape:current-layer="layer1"
     objecttolerance="11.3"
     fit-margin-top="0"
     fit-margin-left="0"
     fit-margin-right="0"
     fit-margin-bottom="0">
    <inkscape:grid
       type="xygrid"
       id="grid52061"
       originx="-9.5513356"
       originy="-31.459821" />
  </sodipodi:namedview>
  <defs
     id="defs2" />
  <g
     inkscape:label="Ebene 1"
     inkscape:groupmode="layer"
     id="layer1"
     transform="translate(-9.5513358,-31.459819)">
    <g
       id="g143679">
      <path
         id="path73267"
         style="fill:#5b749c;fill-opacity:1;stroke-width:0.378447"
         d="m 97.680318,132.70997 v 32.12465 c 0,2.28525 1.840097,4.12533 4.125332,4.12533 h 46.7496 c 2.28526,0 4.12533,-1.84008 4.12533,-4.12533 v -17.12505 h -31.73037 v -14.9996 z" />
      <path
         id="path53688"
         style="fill:#ff5758;fill-opacity:1;stroke-width:0.378447"
         d="m 101.80565,31.459819 c -2.285235,0 -4.125332,1.83956 -4.125332,4.124812 v 17.125053 h 44.999832 v 20.000329 h -17.64903 v 9.999907 h 41.2755 v 19.99981 h -48.38205 v 9.99991 h 17.72192 v 15.00012 h 17.03409 37.12488 c 2.28523,0 4.1248,-1.83956 4.1248,-4.12482 V 76.834826 c 0,-2.28525 -1.83957,-4.124813 -4.1248,-4.124813 H 152.68058 V 35.584631 c 0,-2.285252 -1.84007,-4.124812 -4.12533,-4.124812 z M 60.555459,72.710013 c -2.285252,0 -4.124815,1.839563 -4.124815,4.124813 V 82.70992 H 120.03142 V 72.710013 H 97.680318 Z"
         sodipodi:nodetypes="ssccccccccccccsssscsssssccccs" />
    </g>
    <rect
       style="fill:#5b749c;fill-opacity:1;stroke-width:0.19866;stroke-miterlimit:4;stroke-dasharray:none"
       id="rect51740-3-3"
       width="73.280037"
       height="10"
       x="39.644199"
       y="102.70976" />
    <path
       id="rect51740-3-4-8"
       style="fill:#5b749c;stroke-width:0.12711"
       d="m 71.568218,117.70985 v 9.99991 h 5.3e-4 v 11.33936 a 10,10 0 0 0 -4.999705,8.66045 10,10 0 0 0 9.999906,9.9999 10,10 0 0 0 9.999901,-9.9999 10,10 0 0 0 -5.000202,-8.65942 v -11.34039 h 49.077612 v -9.99991 z m 5.000731,25.99945 a 3.9999999,3.9999999 0 0 1 3.999759,4.00027 3.9999999,3.9999999 0 0 1 -3.999759,3.99976 3.9999999,3.9999999 0 0 1 -4.000262,-3.99976 3.9999999,3.9999999 0 0 1 4.000262,-4.00027 z" />
    <path
       id="rect51740-3-7"
       style="fill:#5b749c;stroke-width:0.276304"
       d="m 19.551244,82.70992 a 10,10 0 0 0 -9.9999082,9.999905 10,10 0 0 0 9.9999082,9.999905 10,10 0 0 0 8.660453,-5.000208 H 161.30642 V 87.709616 H 28.210662 A 10,10 0 0 0 19.551244,82.70992 Z m 0,5.999633 a 3.9999999,3.9999999 0 0 1 4.000273,4.000272 3.9999999,3.9999999 0 0 1 -4.000273,3.999757 3.9999999,3.9999999 0 0 1 -3.999756,-3.999757 3.9999999,3.9999999 0 0 1 3.999756,-4.000272 z" />
    <rect
       style="fill:#ff5758;fill-opacity:1;stroke-width:0.119485;stroke-miterlimit:4;stroke-dasharray:none"
       id="rect51740-3-7-5"
       width="26.509001"
       height="10"
       x="126.17136"
       y="132.70976" />
    <rect
       style="fill:#5b749c;fill-opacity:1;stroke-width:0.173619;stroke-miterlimit:4;stroke-dasharray:none"
       id="rect51740-3-7-5-1"
       width="55.970306"
       height="10"
       x="81.710365"
       y="57.709759" />
    <text
       xml:space="preserve"
       style="font-style:normal;font-variant:normal;font-weight:normal;font-stretch:normal;font-size:13.861px;line-height:1.25;font-family:'Berlin Sans FB Demi';-inkscape-font-specification:'Berlin Sans FB Demi';fill:#5b749c;fill-opacity:1;stroke:none;stroke-width:0.346524"
       x="197.82579"
       y="119.71816"
       id="text104811"><tspan
         sodipodi:role="line"
         id="tspan104809"
         style="font-style:normal;font-variant:normal;font-weight:normal;font-stretch:normal;font-size:66.5328px;font-family:Haettenschweiler;-inkscape-font-specification:Haettenschweiler;fill:#5b749c;fill-opacity:1;stroke-width:0.346524"
         x="197.82579"
         y="119.71816">SDC Plug-a-thon</tspan></text>
  </g>
</svg>
